<?xml version="1.0" encoding="utf-8"?>
<!-- Generator: Adobe Illustrator 26.0.0, SVG Export Plug-In . SVG Version: 6.00 Build 0)  -->
<svg version="1.1" id="Capa_1" xmlns="http://www.w3.org/2000/svg" xmlns:xlink="http://www.w3.org/1999/xlink" x="0px" y="0px"
	 viewBox="0 0 448.44 203.13" style="enable-background:new 0 0 448.44 203.13;" xml:space="preserve">
<style type="text/css">
	.st0{fill:#FFFFFF;}
</style>
<g>
	<path class="st0" d="M214.48,131.86c0-13.72,0.04-26.83-0.09-39.93c-0.01-0.94-1.16-2.24-2.12-2.76
		c-20.16-10.91-40.35-21.77-60.62-32.48c-1.28-0.68-3.56-0.62-4.86,0.06c-19.57,10.25-39.03,20.71-58.58,31
		c-3,1.58-3.99,3.56-3.97,6.99c0.16,22.32-0.04,44.65,0.06,66.98c0.09,21.11-19.1,42.99-44.6,41.31
		c-21.5-1.42-38.74-19.94-39.65-41.5c-0.91-21.52,13.91-41.82,35.37-45.31c11.16-1.81,21.28,0.68,30.6,6.88
		c0.79,0.52,1.52,1.12,3.24,2.38c0-2.63,0-4.34,0-6.06c0-23.5,0.09-46.99-0.07-70.49c-0.03-5.07,1.76-8.12,6.36-10.54
		c22.91-12.06,45.65-24.44,68.44-36.72c3.53-1.91,6.76-2.43,10.67-0.3c23.63,12.86,47.38,25.53,71.15,38.12
		c4.2,2.23,4.4,5.82,4.4,9.7c0.01,36.16,0.09,72.32-0.07,108.48c-0.02,4.91-0.58,10.01-1.99,14.69
		c-7.2,23.85-35.94,32.32-54.57,15.8c-14.12-12.53-15.04-34.05-4.35-48.1C178.89,127.35,196.56,122.05,214.48,131.86z M215.24,72.05
		c0-4.79-0.45-8.68,0.1-12.43c0.89-6.02-1.41-10.11-6.42-12.97c-1.24-0.71-2.82-0.83-4.08-1.52c-16.84-9.21-33.61-18.53-50.52-27.61
		c-1.84-0.99-4.88-1.65-6.53-0.81c-11.33,5.74-22.43,11.93-33.61,17.95c-6.85,3.69-13.54,7.75-20.64,10.88
		c-8.48,3.74-9.18,4.14-9.21,13.36c-0.01,3,0.02,6,0.11,8.99c0.11,3.89,1.89,4.75,5.36,2.71c3.54-2.09,7.07-4.19,10.67-6.16
		c14.3-7.83,28.51-15.83,43.04-23.22c2.84-1.44,7.61-1.74,10.33-0.33c19.06,9.9,37.79,20.41,56.69,30.62
		C211.68,72.12,213.3,71.85,215.24,72.05z M69.24,159.72c0.85-15.87-12.54-29.27-27.34-28.97c-15.37,0.31-26.61,13.81-26.82,28.69
		c-0.2,14.44,12.44,28.56,27.51,28.51C57.32,187.9,70.46,172.9,69.24,159.72z M214.44,162.19c0.24-11.12-7.69-20.19-17.93-20.49
		c-9.95-0.29-19.04,8.5-19.26,18.65c-0.26,11.81,7.89,21.12,18.68,21.34C205.48,181.88,214.21,172.68,214.44,162.19z"/>
	<path class="st0" d="M352.24,127.08c0,23.63,0,47.25,0,71.09c-2.76,1.01-3.95,0.59-4.05-2.56c-0.57-18.27-1.5-36.53-1.86-54.81
		c-0.18-9.13,0.45-18.28,1.06-27.4c0.09-1.3,2.21-3.53,3.28-3.46c1.58,0.1,4.08,1.61,4.42,2.97c4.36,17.49,8.46,35.04,12.51,52.6
		c1.27,5.53,2.2,11.14,3.29,16.71c0.44,0.01,0.87,0.01,1.31,0.02c0-6.65,0-13.3,0-19.95c0.01-16.49-0.04-32.98,0.14-49.47
		c0.02-1.83,1.25-3.72,2.23-5.41c0.22-0.38,2.46-0.21,2.55,0.08c0.61,1.99,0.99,4.07,1.26,6.15c0.15,1.14-0.1,2.32-0.11,3.48
		c-0.07,24.81-0.12,49.63-0.24,74.44c-0.01,1.8-0.07,3.85-0.92,5.31c-0.75,1.29-2.64,2.63-4.01,2.62c-1.28-0.02-3.38-1.6-3.67-2.83
		c-5.2-21.87-10.17-43.79-15.22-65.69c-0.32-1.37-0.9-2.67-1.36-4.01C352.64,127,352.44,127.04,352.24,127.08z"/>
	<path class="st0" d="M386.08,72.42c-0.97,5.38-1.94,10.58-2.83,15.8c-1.02,5.93-2.56,6.6-6.9,3.69c4.68-24.76,9.22-49.2,14-73.6
		c0.81-4.12,2.47-8.12,4.17-11.99c0.47-1.07,2.71-2.23,3.77-1.95c1.19,0.31,2.67,2.12,2.82,3.42c1.53,13.61,2.95,27.23,4.13,40.87
		c1.17,13.51,2.11,27.05,2.9,40.59c0.1,1.68-0.84,4.08-2.13,5.02c-2.5,1.83-5.64-0.19-5.74-3.41c-0.11-3.66-0.17-7.33,0.01-10.98
		c0.15-3.06-0.4-5.05-4.04-5.37C393.19,74.26,390.2,73.31,386.08,72.42z M396.17,24.19c-0.2-0.08-0.4-0.16-0.59-0.24
		c-2.04,11.09-3.86,22.23-6.2,33.26c-2.31,10.86-5.73,11.75,9.29,11.43c0.45-0.01,0.9-0.31,1.6-0.57
		C398.9,53.42,397.54,38.8,396.17,24.19z"/>
	<path class="st0" d="M300.08,92.07c5.08-26.07,10.08-51.96,15.23-77.82c0.54-2.69,1.69-5.34,3.04-7.74
		c0.64-1.14,2.6-2.45,3.64-2.22c1.21,0.27,2.8,2.04,2.98,3.32c1.27,9.49,2.38,19.01,3.24,28.54c1.31,14.5,2.4,29.02,3.54,43.54
		c0.26,3.31,0.41,6.63,0.47,9.95c0.06,3.09-1.16,5.12-4.65,5.06c-3.43-0.06-3.41-2.37-3.35-4.84c0.06-2.99-0.36-6.05,0.1-8.97
		c0.73-4.58-1.68-6.24-5.48-6.99c-2.09-0.41-4.23-1.11-6.29-0.93c-1.16,0.1-2.88,1.55-3.16,2.69c-0.99,3.97-1.52,8.06-2.13,12.12
		C306.3,94.14,305.23,94.71,300.08,92.07z M319.96,23.14c-2.97,14.22-5.69,27.52-8.56,40.79c-0.6,2.78,0.48,4.31,2.95,4.55
		c3.22,0.31,6.49,0.08,9.88,0.08C322.81,53.33,321.43,38.71,319.96,23.14z"/>
	<path class="st0" d="M304.26,195.9c3.06-15.13,6.08-29.74,8.96-44.38c2.13-10.8,4.06-21.64,6.12-32.45
		c0.24-1.28,0.49-2.74,1.25-3.7c1.51-1.93,3.38-3.58,5.11-5.34c1.17,2.11,3.09,4.12,3.37,6.34c1.31,10.48,2.33,21.01,3.17,31.54
		c1.17,14.68,2.09,29.37,3.09,44.06c0.09,1.32,0.41,2.97-0.21,3.91c-0.81,1.23-2.41,2.52-3.75,2.61c-0.97,0.07-2.86-1.68-2.97-2.77
		c-0.38-3.62-0.37-7.33-0.09-10.97c0.31-4.04-1.44-5.84-5.29-6.08c-0.8-0.05-1.58-0.41-2.38-0.6c-5.44-1.29-6.6-0.65-7.75,4.71
		c-0.69,3.21-1.04,6.49-1.63,9.72C310.19,198.23,309.09,198.69,304.26,195.9z M327.97,173.97c-1.41-15.52-2.71-29.9-4.01-44.29
		c-0.18-0.02-0.36-0.04-0.54-0.06c-2.69,14.2-5.39,28.41-8.17,43.08C319.57,173.13,323.43,173.52,327.97,173.97z"/>
	<path class="st0" d="M448.41,159.88c0,9.65-0.87,18.89-1.23,28.53c-0.11,2.93-1.3,6.11-2.86,8.64c-4.14,6.69-11.98,6.8-15.88-0.15
		c-2.84-5.07-4.87-10.84-6.05-16.55c-4.03-19.39-1.65-39-1.09-58.53c0.05-1.62,0.6-3.23,0.95-4.84c0.99-4.46,3.07-8.12,7.86-9.21
		c4.93-1.12,11.12,1.42,12.93,6.14c2.02,5.29,4.6,10.04,4.89,15.66c0.52,10.2,0.51,9.03,0.51,18.68
		C448.46,148.62,448.4,159.45,448.41,159.88z M442.65,160.31c0-0.36,0.07-1.17,0.06-1.41c0-1.17,0.11-2.22,0.11-3.39
		c0.03-12.25,1.14-24.17-3.72-35.65c-1.05-2.48-4.09-4.13-6.21-6.16c-1.72,2.21-4.35,4.17-5,6.66c-3.48,13.15-3.39,26.68-2.23,40.05
		c0.82,9.43,3.11,18.79,5.45,28c0.7,2.73,3.81,4.84,5.81,7.24c1.77-2.71,4.65-5.24,5.11-8.16
		C443.51,178.23,442.43,170.14,442.65,160.31z"/>
	<path class="st0" d="M291.72,85.03c0,7.23-3.39,10.16-8.54,11.45c-5.87,1.47-13.37-0.91-16.18-6.02c-2.24-4.08-4.19-8.8-4.51-13.36
		c-1.15-16.39-1.65-32.82-2.17-49.24c-0.13-4.05,0.63-8.13,0.9-12.2c0.65-9.79,16.22-15.8,23.21-11.73
		c1.66,0.97,2.44,3.45,3.63,5.23c-2,0.29-4.18,1.24-5.98,0.77c-7.04-1.85-14.26,2.65-14.64,10.7c-0.94,20.13-1.33,40.23,2.2,60.3
		c1.52,8.62,10.43,10.77,17.04,6.64C288.04,86.71,289.57,86.1,291.72,85.03z"/>
	<path class="st0" d="M295.92,189.74c0.99,5.09-1.43,8.11-5.64,9.87c-9.8,4.08-20.8-2.19-21.84-13.36
		c-1.59-16.99-2.29-34.07-3.09-51.12c-0.21-4.42,0.51-8.9,0.91-13.34c0.85-9.43,16.33-16.86,23.95-11.35
		c1.25,0.9,1.46,3.24,2.15,4.92c-1.57,0.38-3.37,1.45-4.67,1.03c-8.33-2.71-14.81,1.29-15.35,11.84
		c-0.95,18.51-1.03,37.03,1.91,55.44c1.46,9.18,8.44,12.71,16.5,8.06c1-0.58,2.03-1.13,3.09-1.58
		C294.41,189.9,295.09,189.89,295.92,189.74z"/>
	<path class="st0" d="M362.83,8.7c-0.98,0-1.96,0.05-2.93-0.01c-7.47-0.42-12.49,5.16-10.17,12.51c3.15,9.96,7.24,19.62,11.06,29.37
		c4.72,12.04,9.46,24.01,3.46,37.07c-3.75,8.17-11.22,11.86-19.37,8.91c-1.47-0.53-2.37-2.66-3.53-4.05
		c1.71-0.57,3.55-1.86,5.09-1.57c7.18,1.36,9.34-0.04,11.83-6.82c3.71-10.11,1.19-19.4-2.75-28.67
		c-3.91-9.19-8.41-18.19-11.46-27.66c-2.3-7.14-2.01-14.83,3.21-21.2c2.65-3.24,6.22-5.23,10.44-3.87c2.28,0.74,4.17,2.7,6.23,4.11
		C363.57,7.45,363.2,8.07,362.83,8.7z"/>
	<path class="st0" d="M404.19,115.7c0.66,15.46,1.46,30.3,1.87,45.15c0.32,11.75,0.25,23.52,0.1,35.28
		c-0.02,1.18-1.77,2.34-2.72,3.51c-1.07-1.06-2.87-1.99-3.08-3.19c-0.47-2.68-0.1-5.5-0.14-8.26c-0.32-21.77-0.63-43.55-1.05-65.32
		c-0.04-1.92-0.8-3.83-1.35-6.26c-1.88,0.36-3.66,1.12-5.29,0.88c-1.51-0.23-2.86-1.52-4.28-2.35c0.94-1.12,1.74-3.06,2.84-3.24
		c6-0.97,12.06-1.73,18.12-2.01c1.24-0.06,2.59,2.23,3.9,3.44c-1.41,0.8-2.75,1.83-4.26,2.31C407.65,116,406.24,115.7,404.19,115.7z
		"/>
</g>
</svg>
