<?xml version="1.0" encoding="utf-8"?>
<!-- Generator: Adobe Illustrator 24.3.0, SVG Export Plug-In . SVG Version: 6.00 Build 0)  -->
<svg version="1.1" id="Capa_1" xmlns="http://www.w3.org/2000/svg" xmlns:xlink="http://www.w3.org/1999/xlink" x="0px" y="0px"
	 viewBox="0 0 569.2 560.8" style="enable-background:new 0 0 569.2 560.8;" xml:space="preserve">
<style type="text/css">
	.st0{fill:#FEFEFE;}
</style>
<g>
	<path class="st0" d="M74.4,263.7c140.6,0,281.2,0,421.7,0c7.2,2,12.4,8.3,13,15.7c0.6,7.6-3.8,14.8-10.9,17.8
		c-141.5,0-283,0-424.5,0c-8.4-1.8-14.2-9.5-13.7-17.8C60.5,271.6,66.5,265,74.4,263.7z"/>
	<path class="st0" d="M74.4,407.4c140.6,0,281.2,0,421.7,0c7.2,2,12.4,8.3,13,15.7c0.6,7.6-3.8,14.8-10.9,17.8
		c-141.5,0-283,0-424.5,0c-8.4-1.8-14.2-9.5-13.7-17.8C60.5,415.3,66.5,408.7,74.4,407.4z"/>
	<path class="st0" d="M74.4,119.9c140.6,0,281.2,0,421.7,0c7.2,2,12.4,8.3,13,15.7c0.6,7.6-3.8,14.8-10.9,17.8
		c-141.5,0-283,0-424.5,0c-8.4-1.8-14.2-9.5-13.7-17.8C60.5,127.9,66.5,121.3,74.4,119.9z"/>
</g>
</svg>
