<svg width="47" height="47" viewBox="0 0 47 47" fill="none" xmlns="http://www.w3.org/2000/svg">
<path d="M32.9224 46.9997C32.5441 46.9997 32.418 46.8851 32.4294 46.5068C32.4409 41.4856 32.4409 36.476 32.4294 31.4549C32.4294 31.0536 32.5784 30.9619 32.9453 30.9734C34.0917 30.9849 35.238 30.9619 36.3729 30.9849C36.7398 30.9963 36.9117 30.8588 37.0378 30.5263C37.8862 28.3711 38.7574 26.2274 39.6172 24.0722C39.6745 23.9347 39.7089 23.7856 39.7777 23.5678C39.4567 23.5678 39.2045 23.5678 38.9523 23.5678C36.9347 23.5678 34.9285 23.5678 32.9109 23.5678C32.6816 23.5678 32.4294 23.6022 32.4409 23.2468C32.4409 21.4585 32.4065 19.6816 32.4638 17.8933C32.4982 16.7813 32.7963 16.4947 33.9082 16.4259C35.1807 16.3457 36.4647 16.3686 37.7486 16.3457C37.9205 16.3457 38.104 16.3342 38.2645 16.3228C38.2645 13.8237 38.2645 11.3933 38.2645 8.92865C38.0581 8.92865 33.977 8.91718 32.097 8.94011C31.5352 8.95157 30.9735 9.00889 30.4233 9.13499C26.3307 10.0521 23.4877 13.7893 23.568 17.7672C23.6023 19.5211 23.568 21.2751 23.5794 23.029C23.5794 23.4417 23.4762 23.5908 23.0406 23.5793C21.4586 23.5564 19.8652 23.5678 18.2832 23.5678C18.1112 23.5678 17.9278 23.5678 17.7558 23.5678C17.7558 26.0784 17.7558 28.5087 17.7558 30.9849C17.9737 30.9849 18.1571 30.9849 18.329 30.9849C19.8881 30.9849 21.4357 31.0078 22.9948 30.9734C23.4648 30.9619 23.5794 31.111 23.5794 31.5695C23.5565 36.4989 23.5565 41.4398 23.5565 46.3807C23.5565 46.9882 23.5565 46.9882 22.9604 46.9882C18.2144 46.9882 35.4329 46.9882 32.9224 46.9997Z" fill="#E2E2E2"/>
<path d="M46.9884 6.48723C46.9884 3.94228 45.9681 1.95906 43.618 0.824148C43.0334 0.537555 42.3341 0.468772 41.6921 0.296816C41.5431 0.262425 41.4055 0.21657 41.268 0.170715C29.4947 0.170715 17.71 0.170715 5.93674 0.170715C5.55843 0.239498 5.16867 0.319744 4.79036 0.388526C2.36005 0.89293 0.48 3.04811 0.29658 5.51281C0.285116 5.65038 0.216334 5.79941 0.170479 5.93697C0.170479 17.7102 0.170479 29.4949 0.170479 41.2682C0.239261 41.635 0.308044 42.0019 0.38829 42.3687C0.904158 44.8678 3.03641 46.7364 5.58136 46.9084C6.29211 46.9542 7.01433 46.9886 7.72508 46.9886C8.06899 46.9886 18.2259 46.9886 22.9604 46.9886C23.5565 46.9886 23.5565 46.9886 23.5565 46.381C23.5565 41.4401 23.5565 36.4993 23.568 31.5584C23.568 31.0999 23.4533 30.9508 22.9833 30.9623C21.4242 30.9852 19.8766 30.9738 18.3176 30.9738C18.1341 30.9738 17.9622 30.9738 17.7444 30.9738C17.7444 28.4976 17.7444 26.0673 17.7444 23.5567C17.9278 23.5567 18.0998 23.5567 18.2717 23.5567C19.8537 23.5567 21.4472 23.5453 23.0292 23.5682C23.4648 23.5797 23.568 23.4306 23.568 23.0179C23.545 21.264 23.5909 19.51 23.5565 17.7561C23.4762 13.7667 26.3192 10.041 30.4118 9.12389C30.9621 8.99779 31.5238 8.94047 32.0855 8.92901C33.9656 8.90608 38.0466 8.91754 38.253 8.91754C38.253 11.3822 38.253 13.8126 38.253 16.3116C38.0925 16.3231 37.9205 16.3346 37.7371 16.3346C36.4532 16.3575 35.1807 16.346 33.8968 16.4148C32.7848 16.4836 32.4867 16.7702 32.4523 17.8822C32.395 19.6705 32.4409 21.4474 32.4294 23.2357C32.4294 23.5911 32.6702 23.5567 32.8994 23.5567C34.917 23.5567 36.9232 23.5567 38.9408 23.5567C39.193 23.5567 39.4452 23.5567 39.7662 23.5567C39.6974 23.786 39.663 23.9236 39.6057 24.0611C38.7459 26.2163 37.8747 28.36 37.0264 30.5152C36.9003 30.8477 36.7283 30.9852 36.3615 30.9738C35.2151 30.9508 34.0687 30.9738 32.9338 30.9623C32.567 30.9623 32.418 31.0425 32.418 31.4438C32.4294 36.4649 32.4294 41.4745 32.418 46.4957C32.418 46.874 32.5441 46.9886 32.9109 46.9886C35.4215 46.9771 40.7292 46.9771 40.8667 46.9771C44.3746 46.9542 46.4037 44.6156 46.8279 42.1968C46.9196 41.7038 46.9654 41.1994 46.9654 40.695C46.9884 29.3001 46.9884 17.8936 46.9884 6.48723Z" fill="#181818"/>
</svg>
