<svg width="47" height="47" viewBox="0 0 47 47" fill="none" xmlns="http://www.w3.org/2000/svg">
<path d="M40.7176 46.8293H6.11166C2.7405 46.8293 0 44.1002 0 40.7176V6.11166C0 2.7405 2.7405 0 6.11166 0H40.7176C44.0888 0 46.8293 2.7405 46.8293 6.11166V40.7176C46.8293 44.1002 44.1002 46.8293 40.7176 46.8293Z" fill="#181818"/>
<path d="M23.4146 11.57C27.2674 11.57 27.726 11.5814 29.2511 11.6502C30.6615 11.719 31.4297 11.9484 31.9342 12.1433C32.6108 12.407 33.0924 12.7166 33.5969 13.2212C34.1014 13.7257 34.411 14.2073 34.6747 14.8838C34.8697 15.3883 35.1105 16.1566 35.1678 17.567C35.2366 19.092 35.2481 19.5507 35.2481 23.4034C35.2481 27.2562 35.2366 27.7148 35.1678 29.2399C35.099 30.6503 34.8697 31.4185 34.6747 31.923C34.411 32.5996 34.1014 33.0812 33.5969 33.5857C33.0924 34.0902 32.6108 34.3998 31.9342 34.6635C31.4297 34.8585 30.6615 35.0993 29.2511 35.1566C27.726 35.2254 27.2674 35.2369 23.4146 35.2369C19.5619 35.2369 19.1032 35.2254 17.5782 35.1566C16.1678 35.0878 15.3995 34.8585 14.895 34.6635C14.2185 34.3998 13.7369 34.0902 13.2324 33.5857C12.7278 33.0812 12.4182 32.5996 12.1545 31.923C11.9596 31.4185 11.7188 30.6503 11.6614 29.2399C11.5926 27.7148 11.5812 27.2562 11.5812 23.4034C11.5812 19.5507 11.5926 19.092 11.6614 17.567C11.7302 16.1566 11.9596 15.3883 12.1545 14.8838C12.4182 14.2073 12.7278 13.7257 13.2324 13.2212C13.7369 12.7166 14.2185 12.407 14.895 12.1433C15.3995 11.9484 16.1678 11.7076 17.5782 11.6502C19.1032 11.5814 19.5619 11.57 23.4146 11.57ZM23.4146 8.96707C19.4931 8.96707 19 8.97854 17.4635 9.0588C15.927 9.1276 14.8721 9.3684 13.9547 9.73533C13.003 10.1023 12.2004 10.5953 11.3977 11.398C10.5951 12.2006 10.102 13.0033 9.73506 13.955C9.3796 14.8723 9.1388 15.9272 9.05854 17.4638C8.98974 19.0003 8.9668 19.4933 8.9668 23.4149C8.9668 27.3364 8.97827 27.8295 9.05854 29.366C9.12734 30.9025 9.36813 31.9574 9.73506 32.8748C10.102 33.8265 10.5951 34.6291 11.3977 35.4318C12.2004 36.2345 13.003 36.7275 13.9547 37.0944C14.8721 37.4499 15.927 37.6907 17.4635 37.771C19 37.8398 19.4931 37.8627 23.4146 37.8627C27.3362 37.8627 27.8292 37.8512 29.3657 37.771C30.9023 37.7022 31.9572 37.4614 32.8745 37.0944C33.8262 36.7275 34.6289 36.2345 35.4315 35.4318C36.2342 34.6291 36.7272 33.8265 37.0942 32.8748C37.4496 31.9574 37.6904 30.9025 37.7707 29.366C37.8395 27.8295 37.8624 27.3364 37.8624 23.4149C37.8624 19.4933 37.851 19.0003 37.7707 17.4638C37.7019 15.9272 37.4611 14.8723 37.0942 13.955C36.7272 13.0033 36.2342 12.2006 35.4315 11.398C34.6289 10.5953 33.8262 10.1023 32.8745 9.73533C31.9572 9.37987 30.9023 9.13907 29.3657 9.0588C27.8292 8.99 27.3362 8.96707 23.4146 8.96707Z" fill="#E2E2E2"/>
<path d="M23.4146 15.9952C19.3211 15.9952 15.9958 19.3205 15.9958 23.4141C15.9958 27.5076 19.3211 30.8329 23.4146 30.8329C27.5082 30.8329 30.8335 27.5076 30.8335 23.4141C30.8335 19.3205 27.5082 15.9952 23.4146 15.9952ZM23.4146 28.23C20.7544 28.23 18.5987 26.0743 18.5987 23.4141C18.5987 20.7538 20.7544 18.5981 23.4146 18.5981C26.0749 18.5981 28.2306 20.7538 28.2306 23.4141C28.2306 26.0743 26.0749 28.23 23.4146 28.23Z" fill="#E2E2E2"/>
<path d="M32.863 15.7089C32.863 16.6606 32.0833 17.4403 31.1316 17.4403C30.1684 17.4403 29.4001 16.6606 29.4001 15.7089C29.4001 14.7572 30.1799 13.9775 31.1316 13.9775C32.0833 13.966 32.863 14.7457 32.863 15.7089Z" fill="#E2E2E2"/>
</svg>
