<svg width="48" height="47" viewBox="0 0 48 47" fill="none" xmlns="http://www.w3.org/2000/svg">
<path d="M41.6684 47H6.57502C3.33792 47 0.707062 44.3691 0.707062 41.132V6.03867C0.707062 2.80157 3.33792 0.170715 6.57502 0.170715H41.6798C44.9169 0.170715 47.5478 2.80157 47.5478 6.03867V41.1435C47.5363 44.3691 44.9055 47 41.6684 47Z" fill="#181818"/>
<path d="M42.0801 14.5033C41.6455 12.879 40.3758 11.5979 38.763 11.1632C35.8347 10.374 24.1217 10.374 24.1217 10.374C24.1217 10.374 12.3972 10.374 9.48037 11.1632C7.86753 11.5979 6.59786 12.879 6.1632 14.5033C5.38538 17.443 5.38538 23.5854 5.38538 23.5854C5.38538 23.5854 5.38538 29.7279 6.1632 32.6676C6.59786 34.2919 7.86753 35.573 9.48037 36.0077C12.4086 36.7969 24.1217 36.7969 24.1217 36.7969C24.1217 36.7969 35.8461 36.7969 38.763 36.0077C40.3758 35.573 41.6455 34.2919 42.0801 32.6676C42.858 29.7279 42.858 23.5854 42.858 23.5854C42.858 23.5854 42.858 17.443 42.0801 14.5033Z" fill="#E2E2E2"/>
<path d="M20.2897 29.1562V18.0151L30.0811 23.5856L20.2897 29.1562Z" fill="#181818"/>
</svg>
